<svg width="170" height="60" viewBox="0 0 170 60" fill="none" xmlns="http://www.w3.org/2000/svg">
<path d="M19.8797 1.96326C8.31973 5.91042 0 16.9324 0 29.9112C0 42.8899 8.31973 53.9119 19.8797 57.8591V1.96326Z" fill="#2AE19E"/>
<path d="M43.0727 0.484772C27.8641 1.55184 15.856 14.3166 15.856 29.9112C15.856 45.5058 27.8641 58.2705 43.0727 59.3376V0.484772Z" fill="#1C957B"/>
<path d="M52.6905 23.1508H50.4562V28.5062H52.903C55.197 28.5062 56.3457 27.7168 56.3457 25.8001C56.3457 23.8834 55.2269 23.1542 52.6905 23.1542V23.1508Z" fill="#030124"/>
<path d="M82.945 41.1305C77.8423 41.1305 73.9181 37.3271 73.9181 32.1557C73.9181 26.9842 77.9352 23.1809 82.945 23.1809C86.0524 23.1809 88.7582 24.626 90.3783 26.9274C90.6705 27.3422 91.3245 27.0846 91.268 26.5795C89.6247 11.8579 77.2281 0.411163 62.1755 0.411163C46.0772 0.411163 33.0897 13.3364 32.9005 29.5532C32.7079 46.0075 45.888 59.4078 62.1755 59.4078C75.0768 59.4078 86.0259 51.0017 89.9268 39.3308C90.0861 38.8525 89.5018 38.4611 89.13 38.8023C87.5232 40.2741 85.3552 41.1305 82.945 41.1305ZM53.1122 33.5539H50.4562V40.612H44.9916V18.0998H52.5411C54.9282 18.0697 56.7076 18.4042 57.8862 18.9528C60.3031 20.0801 61.8104 22.6658 61.8104 25.7064C61.8104 29.8744 59.5163 33.5539 53.1155 33.5539H53.1122ZM72.9188 28.2286C69.9309 28.2587 68.9648 29.386 68.9648 31.3027V40.612H63.9517V23.7262H68.6627V25.5225H68.7224C69.5989 23.7262 70.9866 23.1508 72.9188 23.1508V28.2319V28.2286Z" fill="#030124"/>
<path d="M78.9279 32.1557C78.9279 34.4671 80.6775 36.4139 82.945 36.4139C85.2125 36.4139 86.9621 34.4069 86.9621 32.1557C86.9621 29.9045 85.2722 27.8974 82.9151 27.8974C80.7107 27.8974 78.9279 29.8443 78.9279 32.1557Z" fill="#030124"/>
<path d="M104.8 25.3184C103.349 23.8566 101.742 23.2646 99.7637 23.2646C94.7606 23.2646 91.268 27.2786 91.268 32.4467C91.268 37.6148 94.6676 41.6924 99.8566 41.6924C102.297 41.6924 104.026 40.8528 104.986 39.2639H105.049V41.1305H109.929V18.0998H104.8V25.3218V25.3184ZM100.69 36.8655C98.2199 36.8655 96.3973 35.0291 96.3973 32.4133C96.3973 29.7974 98.3129 28.0881 100.723 28.0881C103.256 28.0881 105.079 30.0182 105.079 32.4133C105.079 34.9655 103.193 36.8655 100.693 36.8655H100.69Z" fill="#04021E"/>
<path d="M120.072 23.298C114.942 23.298 110.836 27.1247 110.836 32.4802C110.836 37.8356 114.853 41.6623 120.072 41.6623C125.291 41.6623 129.308 37.8322 129.308 32.4166C129.308 27.001 125.231 23.298 120.072 23.298ZM120.072 36.8388C117.754 36.8388 115.962 34.8451 115.962 32.4802C115.962 30.1152 117.784 28.1216 120.038 28.1216C122.449 28.1216 124.178 30.1754 124.178 32.4802C124.178 34.7849 122.479 36.8388 120.068 36.8388H120.072Z" fill="#04021E"/>
<path d="M140.649 23.2645C138.856 23.2645 137.126 23.763 135.768 25.2247V18.0964H130.639V41.1305H135.549V39.294H135.612C136.386 40.7558 138.454 41.7225 140.522 41.7225C145.804 41.7225 149.171 37.7085 149.171 32.3865C149.171 26.6297 145.094 23.2679 140.645 23.2679L140.649 23.2645ZM139.752 36.899C137.375 36.899 135.582 34.999 135.582 32.4467C135.582 30.0516 137.435 28.0881 139.815 28.0881C142.196 28.0881 144.048 30.1721 144.048 32.4768C144.048 34.9655 142.162 36.8956 139.755 36.8956L139.752 36.899Z" fill="#04021E"/>
<path d="M155.309 18.0998H150.18V22.0202H155.309V18.0998Z" fill="#04021E"/>
<path d="M155.309 23.8566H150.18V41.1305H155.309V23.8566Z" fill="#04021E"/>
<path d="M164.449 18.0998H159.32V23.8566H156.787V27.7804H159.32V41.1305H164.449V27.7804H166.919V23.8566H164.449V18.0998Z" fill="#04021E"/>
<path d="M169.997 23.8566H167.835V27.7536H169.997V23.8566Z" fill="#04021E"/>
</svg>
